<svg width="40" height="40" viewBox="0 0 40 40" fill="none" xmlns="http://www.w3.org/2000/svg">
<rect width="40" height="40" rx="10" fill="#62647F"/>
<g clip-path="url(#clip0_39_25)">
<path fill-rule="evenodd" clip-rule="evenodd" d="M30.1622 12.7899C30.4747 13.1025 30.6502 13.5263 30.6502 13.9683C30.6502 14.4102 30.4747 14.834 30.1622 15.1466L17.67 27.6388C17.5049 27.8039 17.3089 27.9349 17.0932 28.0243C16.8775 28.1137 16.6463 28.1597 16.4128 28.1597C16.1793 28.1597 15.9481 28.1137 15.7324 28.0243C15.5167 27.9349 15.3207 27.8039 15.1556 27.6388L8.94891 21.4333C8.78972 21.2795 8.66275 21.0956 8.57541 20.8923C8.48806 20.6889 8.44208 20.4702 8.44016 20.2489C8.43823 20.0276 8.4804 19.8082 8.56421 19.6033C8.64801 19.3985 8.77176 19.2124 8.92825 19.0559C9.08474 18.8994 9.27082 18.7757 9.47565 18.6919C9.68048 18.6081 9.89994 18.5659 10.1212 18.5678C10.3425 18.5698 10.5612 18.6157 10.7646 18.7031C10.9679 18.7904 11.1518 18.9174 11.3056 19.0766L16.4122 24.1833L27.8045 12.7899C27.9592 12.635 28.143 12.5122 28.3453 12.4284C28.5476 12.3445 28.7644 12.3014 28.9834 12.3014C29.2023 12.3014 29.4191 12.3445 29.6214 12.4284C29.8237 12.5122 30.0075 12.635 30.1622 12.7899Z" fill="white"/>
</g>
<defs>
<clipPath id="clip0_39_25">
<rect x="6.22223" y="7.11108" width="26.6667" height="26.6667" fill="white"/>
</clipPath>
</defs>
</svg>
