<svg width="46" height="45" viewBox="0 0 46 45" fill="none" xmlns="http://www.w3.org/2000/svg">
<rect x="0.639832" y="0.5" width="43.9438" height="44" rx="9.5" fill="#ECEDF6" stroke="#62647F"/>
<g clip-path="url(#clip0_49_2)">
<path d="M27.7903 10.6837C28.2585 10.2151 28.8935 9.95178 29.5555 9.95178C30.2176 9.95178 30.8526 10.2151 31.3208 10.6837L34.4107 13.7775C34.6427 14.0097 34.8267 14.2853 34.9522 14.5887C35.0778 14.8921 35.1424 15.2172 35.1424 15.5456C35.1424 15.874 35.0778 16.1992 34.9522 16.5026C34.8267 16.8059 34.6427 17.0816 34.4107 17.3137L19.563 32.18L11.598 33.525L12.9426 25.55L27.7903 10.6837ZM27.5044 14.505L30.5942 17.5987L32.6454 15.545L29.5555 12.4525L27.5044 14.505ZM28.8277 19.3675L25.7391 16.2737L15.2721 26.7537L14.6442 30.475L18.3608 29.8475L28.8277 19.3675Z" fill="#777777"/>
</g>
<defs>
<clipPath id="clip0_49_2">
<rect x="8.12982" y="7" width="29.9625" height="30" fill="white"/>
</clipPath>
</defs>
</svg>
